<svg width="40" height="40" viewBox="0 0 40 40" fill="none" xmlns="http://www.w3.org/2000/svg">
<circle cx="20" cy="20" r="20" fill="url(#paint0_linear_481_3556)"/>
<path d="M29.0245 11.6503C27.3163 10.8682 25.5129 10.3134 23.6605 10C23.407 10.4531 23.1777 10.9194 22.9734 11.3967C21.0002 11.0994 18.9936 11.0994 17.0204 11.3967C16.8161 10.9194 16.5867 10.4532 16.3333 10C14.4797 10.3161 12.6752 10.8722 10.9652 11.6544C7.57053 16.6769 6.65029 21.5746 7.11041 26.4029C9.09842 27.8717 11.3236 28.9888 13.6891 29.7055C14.2218 28.9891 14.6931 28.2291 15.0981 27.4335C14.3289 27.1462 13.5864 26.7918 12.8793 26.3742C13.0654 26.2393 13.2474 26.1002 13.4233 25.9652C15.4808 26.9328 17.7264 27.4345 20 27.4345C22.2736 27.4345 24.5192 26.9328 26.5767 25.9652C26.7546 26.1104 26.9366 26.2495 27.1206 26.3742C26.4122 26.7924 25.6684 27.1476 24.8977 27.4356C25.3022 28.2308 25.7736 28.9902 26.3067 29.7055C28.6743 28.9916 30.9012 27.8751 32.8896 26.4049C33.4294 20.8057 31.9673 15.953 29.0245 11.6503ZM15.681 23.4335C14.3988 23.4335 13.3394 22.2699 13.3394 20.8384C13.3394 19.407 14.3619 18.2331 15.6769 18.2331C16.9918 18.2331 18.0429 19.407 18.0204 20.8384C17.9979 22.2699 16.9877 23.4335 15.681 23.4335ZM24.319 23.4335C23.0347 23.4335 21.9795 22.2699 21.9795 20.8384C21.9795 19.407 23.002 18.2331 24.319 18.2331C25.636 18.2331 26.6789 19.407 26.6564 20.8384C26.6339 22.2699 25.6257 23.4335 24.319 23.4335Z" fill="white"/>
<defs>
<linearGradient id="paint0_linear_481_3556" x1="16.1633" y1="-2.86925e-07" x2="51.3219" y2="2.97042" gradientUnits="userSpaceOnUse">
<stop stop-color="#F96E1C"/>
<stop offset="0.868923" stop-color="#F90403"/>
</linearGradient>
</defs>
</svg>
